<?xml version="1.0" standalone="no"?>
<!DOCTYPE svg PUBLIC "-//W3C//DTD SVG 20010904//EN"
 "http://www.w3.org/TR/2001/REC-SVG-20010904/DTD/svg10.dtd">
<svg version="1.0" xmlns="http://www.w3.org/2000/svg"
 width="96.000000pt" height="96.000000pt" viewBox="0 0 96.000000 96.000000"
 preserveAspectRatio="xMidYMid meet">

<g transform="translate(0.000000,96.000000) scale(0.100000,-0.100000)"
fill="#000000" stroke="none">
<path d="M385 826 c-107 -34 -186 -102 -232 -201 -24 -51 -28 -73 -28 -145 0
-72 4 -94 28 -146 36 -77 104 -145 182 -181 51 -24 73 -28 145 -28 72 0 94 4
145 28 78 36 146 104 182 181 24 52 28 74 28 146 0 72 -4 94 -28 145 -30 65
-81 124 -138 160 -78 50 -199 68 -284 41z m229 -80 c105 -51 161 -144 161
-266 0 -85 -21 -142 -74 -203 -82 -92 -237 -121 -353 -64 -160 79 -215 278
-118 430 80 126 246 170 384 103z"/>
<path d="M355 600 c-18 -20 -18 -22 30 -70 l49 -50 -49 -50 -50 -51 25 -19 25
-19 48 47 47 46 48 -46 47 -47 25 19 25 19 -50 51 -49 50 49 50 49 50 -22 22
-22 22 -50 -49 -50 -49 -48 47 c-26 26 -50 47 -53 47 -3 0 -14 -9 -24 -20z"/>
</g>
</svg>
